<svg width="1920" height="1080" viewBox="0 0 1920 1080" xmlns="http://www.w3.org/2000/svg"><path d="M 0,1080 C 0,1080 0,270 0,270 C 149.57142857142856,256.6071428571429 299.1428571428571,243.21428571428572 445,230 C 590.8571428571429,216.78571428571428 733,203.75 920,239 C 1107,274.25 1338.857142857143,357.7857142857143 1513,371 C 1687.142857142857,384.2142857142857 1803.5714285714284,327.1071428571429 1920,270 C 1920,270 1920,1080 1920,1080 Z" fill="#853bce" opacity="0.15"/><path d="M 0,1080 C 0,1080 0,540 0,540 C 131.25,550.8928571428571 262.5,561.7857142857143 445,547 C 627.5,532.2142857142857 861.25,491.75 1016,498 C 1170.75,504.25 1246.5,557.2142857142857 1384,572 C 1521.5,586.7857142857143 1720.75,563.3928571428571 1920,540 C 1920,540 1920,1080 1920,1080 Z" fill="#853bce" opacity="0.3"/><path d="M 0,1080 C 0,1080 0,810 0,810 C 129.64285714285717,796.6428571428571 259.28571428571433,783.2857142857143 441,762 C 622.7142857142857,740.7142857142857 856.5,711.5 1020,743 C 1183.5,774.5 1276.7142857142858,866.7142857142858 1415,888 C 1553.2857142857142,909.2857142857142 1736.642857142857,859.6428571428571 1920,810 C 1920,810 1920,1080 1920,1080 Z" fill="#853bce" opacity="0.44999999999999996"/></svg>