<?xml version="1.0" standalone="no"?><svg xmlns="http://www.w3.org/2000/svg" viewBox="0 0 1440 320"><path fill="#13111c" fill-opacity="1" d="M0,64L30,101.3C60,139,120,213,180,229.3C240,245,300,203,360,181.3C420,160,480,160,540,160C600,160,660,160,720,176C780,192,840,224,900,234.7C960,245,1020,235,1080,213.3C1140,192,1200,160,1260,144C1320,128,1380,128,1410,128L1440,128L1440,0L1410,0C1380,0,1320,0,1260,0C1200,0,1140,0,1080,0C1020,0,960,0,900,0C840,0,780,0,720,0C660,0,600,0,540,0C480,0,420,0,360,0C300,0,240,0,180,0C120,0,60,0,30,0L0,0Z"></path></svg>