<?xml version="1.0" standalone="no"?>
<svg xmlns:xlink="http://www.w3.org/1999/xlink" id="wave" style="transform:rotate(180deg); transition: 0.3s" viewBox="0 0 1440 490" version="1.1" xmlns="http://www.w3.org/2000/svg"><defs><linearGradient id="sw-gradient-0" x1="0" x2="0" y1="1" y2="0"><stop stop-color="rgba(24, 22, 34, 0.96)" offset="0%"/><stop stop-color="rgba(19, 17, 28, 0.8)" offset="100%"/></linearGradient></defs><path style="transform:translate(0, 0px); opacity:1" fill="url(#sw-gradient-0)" d="M0,98L48,106.2C96,114,192,131,288,155.2C384,180,480,212,576,187.8C672,163,768,82,864,89.8C960,98,1056,196,1152,220.5C1248,245,1344,196,1440,187.8C1536,180,1632,212,1728,245C1824,278,1920,310,2016,343C2112,376,2208,408,2304,375.7C2400,343,2496,245,2592,228.7C2688,212,2784,278,2880,285.8C2976,294,3072,245,3168,187.8C3264,131,3360,65,3456,89.8C3552,114,3648,229,3744,253.2C3840,278,3936,212,4032,187.8C4128,163,4224,180,4320,212.3C4416,245,4512,294,4608,277.7C4704,261,4800,180,4896,130.7C4992,82,5088,65,5184,89.8C5280,114,5376,180,5472,236.8C5568,294,5664,343,5760,351.2C5856,359,5952,327,6048,277.7C6144,229,6240,163,6336,187.8C6432,212,6528,327,6624,343C6720,359,6816,278,6864,236.8L6912,196L6912,490L6864,490C6816,490,6720,490,6624,490C6528,490,6432,490,6336,490C6240,490,6144,490,6048,490C5952,490,5856,490,5760,490C5664,490,5568,490,5472,490C5376,490,5280,490,5184,490C5088,490,4992,490,4896,490C4800,490,4704,490,4608,490C4512,490,4416,490,4320,490C4224,490,4128,490,4032,490C3936,490,3840,490,3744,490C3648,490,3552,490,3456,490C3360,490,3264,490,3168,490C3072,490,2976,490,2880,490C2784,490,2688,490,2592,490C2496,490,2400,490,2304,490C2208,490,2112,490,2016,490C1920,490,1824,490,1728,490C1632,490,1536,490,1440,490C1344,490,1248,490,1152,490C1056,490,960,490,864,490C768,490,672,490,576,490C480,490,384,490,288,490C192,490,96,490,48,490L0,490Z"/><defs><linearGradient id="sw-gradient-1" x1="0" x2="0" y1="1" y2="0"><stop stop-color="rgba(90.243, 11.811, 166.526, 1)" offset="0%"/><stop stop-color="rgba(70.915, 0, 139.204, 1)" offset="100%"/></linearGradient></defs><path style="transform:translate(0, 50px); opacity:0.9" fill="url(#sw-gradient-1)" d="M0,294L48,285.8C96,278,192,261,288,245C384,229,480,212,576,196C672,180,768,163,864,204.2C960,245,1056,343,1152,351.2C1248,359,1344,278,1440,277.7C1536,278,1632,359,1728,334.8C1824,310,1920,180,2016,114.3C2112,49,2208,49,2304,81.7C2400,114,2496,180,2592,212.3C2688,245,2784,245,2880,204.2C2976,163,3072,82,3168,114.3C3264,147,3360,294,3456,310.3C3552,327,3648,212,3744,171.5C3840,131,3936,163,4032,220.5C4128,278,4224,359,4320,400.2C4416,441,4512,441,4608,383.8C4704,327,4800,212,4896,179.7C4992,147,5088,196,5184,196C5280,196,5376,147,5472,171.5C5568,196,5664,294,5760,302.2C5856,310,5952,229,6048,196C6144,163,6240,180,6336,155.2C6432,131,6528,65,6624,98C6720,131,6816,261,6864,326.7L6912,392L6912,490L6864,490C6816,490,6720,490,6624,490C6528,490,6432,490,6336,490C6240,490,6144,490,6048,490C5952,490,5856,490,5760,490C5664,490,5568,490,5472,490C5376,490,5280,490,5184,490C5088,490,4992,490,4896,490C4800,490,4704,490,4608,490C4512,490,4416,490,4320,490C4224,490,4128,490,4032,490C3936,490,3840,490,3744,490C3648,490,3552,490,3456,490C3360,490,3264,490,3168,490C3072,490,2976,490,2880,490C2784,490,2688,490,2592,490C2496,490,2400,490,2304,490C2208,490,2112,490,2016,490C1920,490,1824,490,1728,490C1632,490,1536,490,1440,490C1344,490,1248,490,1152,490C1056,490,960,490,864,490C768,490,672,490,576,490C480,490,384,490,288,490C192,490,96,490,48,490L0,490Z"/><defs><linearGradient id="sw-gradient-2" x1="0" x2="0" y1="1" y2="0"><stop stop-color="rgba(58, 4, 110, 1)" offset="0%"/><stop stop-color="rgba(80.334, 10.519, 148.311, 1)" offset="100%"/></linearGradient></defs><path style="transform:translate(0, 100px); opacity:0.8" fill="url(#sw-gradient-2)" d="M0,196L48,228.7C96,261,192,327,288,359.3C384,392,480,392,576,383.8C672,376,768,359,864,326.7C960,294,1056,245,1152,228.7C1248,212,1344,229,1440,228.7C1536,229,1632,212,1728,187.8C1824,163,1920,131,2016,147C2112,163,2208,229,2304,245C2400,261,2496,229,2592,253.2C2688,278,2784,359,2880,343C2976,327,3072,212,3168,155.2C3264,98,3360,98,3456,147C3552,196,3648,294,3744,277.7C3840,261,3936,131,4032,138.8C4128,147,4224,294,4320,359.3C4416,425,4512,408,4608,400.2C4704,392,4800,392,4896,326.7C4992,261,5088,131,5184,89.8C5280,49,5376,98,5472,163.3C5568,229,5664,310,5760,310.3C5856,310,5952,229,6048,228.7C6144,229,6240,310,6336,343C6432,376,6528,359,6624,302.2C6720,245,6816,147,6864,98L6912,49L6912,490L6864,490C6816,490,6720,490,6624,490C6528,490,6432,490,6336,490C6240,490,6144,490,6048,490C5952,490,5856,490,5760,490C5664,490,5568,490,5472,490C5376,490,5280,490,5184,490C5088,490,4992,490,4896,490C4800,490,4704,490,4608,490C4512,490,4416,490,4320,490C4224,490,4128,490,4032,490C3936,490,3840,490,3744,490C3648,490,3552,490,3456,490C3360,490,3264,490,3168,490C3072,490,2976,490,2880,490C2784,490,2688,490,2592,490C2496,490,2400,490,2304,490C2208,490,2112,490,2016,490C1920,490,1824,490,1728,490C1632,490,1536,490,1440,490C1344,490,1248,490,1152,490C1056,490,960,490,864,490C768,490,672,490,576,490C480,490,384,490,288,490C192,490,96,490,48,490L0,490Z"/></svg>