<?xml version="1.0" standalone="no"?>
<svg xmlns:xlink="http://www.w3.org/1999/xlink" id="wave" style="transform:rotate(0deg); transition: 0.3s" viewBox="0 0 1440 480" version="1.1" xmlns="http://www.w3.org/2000/svg"><defs><linearGradient id="sw-gradient-0" x1="0" x2="0" y1="1" y2="0"><stop stop-color="rgba(64, 8, 112, 1)" offset="0%"/><stop stop-color="rgba(0, 0, 0, 1)" offset="100%"/></linearGradient></defs><path style="transform:translate(0, 0px); opacity:1" fill="url(#sw-gradient-0)" d="M0,384L60,392C120,400,240,416,360,424C480,432,600,432,720,408C840,384,960,336,1080,296C1200,256,1320,224,1440,240C1560,256,1680,320,1800,344C1920,368,2040,352,2160,304C2280,256,2400,176,2520,176C2640,176,2760,256,2880,240C3000,224,3120,112,3240,72C3360,32,3480,64,3600,64C3720,64,3840,32,3960,24C4080,16,4200,32,4320,56C4440,80,4560,112,4680,104C4800,96,4920,48,5040,24C5160,0,5280,0,5400,64C5520,128,5640,256,5760,328C5880,400,6000,416,6120,376C6240,336,6360,240,6480,168C6600,96,6720,48,6840,24C6960,0,7080,0,7200,8C7320,16,7440,32,7560,72C7680,112,7800,176,7920,224C8040,272,8160,304,8280,336C8400,368,8520,400,8580,416L8640,432L8640,480L8580,480C8520,480,8400,480,8280,480C8160,480,8040,480,7920,480C7800,480,7680,480,7560,480C7440,480,7320,480,7200,480C7080,480,6960,480,6840,480C6720,480,6600,480,6480,480C6360,480,6240,480,6120,480C6000,480,5880,480,5760,480C5640,480,5520,480,5400,480C5280,480,5160,480,5040,480C4920,480,4800,480,4680,480C4560,480,4440,480,4320,480C4200,480,4080,480,3960,480C3840,480,3720,480,3600,480C3480,480,3360,480,3240,480C3120,480,3000,480,2880,480C2760,480,2640,480,2520,480C2400,480,2280,480,2160,480C2040,480,1920,480,1800,480C1680,480,1560,480,1440,480C1320,480,1200,480,1080,480C960,480,840,480,720,480C600,480,480,480,360,480C240,480,120,480,60,480L0,480Z"/><defs><linearGradient id="sw-gradient-1" x1="0" x2="0" y1="1" y2="0"><stop stop-color="rgba(64, 8, 112, 1)" offset="0%"/><stop stop-color="rgba(0, 0, 0, 1)" offset="100%"/></linearGradient></defs><path style="transform:translate(0, 50px); opacity:0.9" fill="url(#sw-gradient-1)" d="M0,288L60,280C120,272,240,256,360,232C480,208,600,176,720,176C840,176,960,208,1080,248C1200,288,1320,336,1440,296C1560,256,1680,128,1800,128C1920,128,2040,256,2160,272C2280,288,2400,192,2520,168C2640,144,2760,192,2880,192C3000,192,3120,144,3240,112C3360,80,3480,64,3600,48C3720,32,3840,16,3960,64C4080,112,4200,224,4320,256C4440,288,4560,240,4680,256C4800,272,4920,352,5040,336C5160,320,5280,208,5400,208C5520,208,5640,320,5760,376C5880,432,6000,432,6120,432C6240,432,6360,432,6480,368C6600,304,6720,176,6840,112C6960,48,7080,48,7200,48C7320,48,7440,48,7560,104C7680,160,7800,272,7920,280C8040,288,8160,192,8280,200C8400,208,8520,320,8580,376L8640,432L8640,480L8580,480C8520,480,8400,480,8280,480C8160,480,8040,480,7920,480C7800,480,7680,480,7560,480C7440,480,7320,480,7200,480C7080,480,6960,480,6840,480C6720,480,6600,480,6480,480C6360,480,6240,480,6120,480C6000,480,5880,480,5760,480C5640,480,5520,480,5400,480C5280,480,5160,480,5040,480C4920,480,4800,480,4680,480C4560,480,4440,480,4320,480C4200,480,4080,480,3960,480C3840,480,3720,480,3600,480C3480,480,3360,480,3240,480C3120,480,3000,480,2880,480C2760,480,2640,480,2520,480C2400,480,2280,480,2160,480C2040,480,1920,480,1800,480C1680,480,1560,480,1440,480C1320,480,1200,480,1080,480C960,480,840,480,720,480C600,480,480,480,360,480C240,480,120,480,60,480L0,480Z"/><defs><linearGradient id="sw-gradient-2" x1="0" x2="0" y1="1" y2="0"><stop stop-color="rgba(64, 8, 112, 1)" offset="0%"/><stop stop-color="rgba(0, 0, 0, 1)" offset="100%"/></linearGradient></defs><path style="transform:translate(0, 100px); opacity:0.8" fill="url(#sw-gradient-2)" d="M0,240L60,200C120,160,240,80,360,80C480,80,600,160,720,184C840,208,960,176,1080,136C1200,96,1320,48,1440,24C1560,0,1680,0,1800,40C1920,80,2040,160,2160,176C2280,192,2400,144,2520,104C2640,64,2760,32,2880,48C3000,64,3120,128,3240,200C3360,272,3480,352,3600,392C3720,432,3840,432,3960,400C4080,368,4200,304,4320,304C4440,304,4560,368,4680,360C4800,352,4920,272,5040,256C5160,240,5280,288,5400,288C5520,288,5640,240,5760,216C5880,192,6000,192,6120,168C6240,144,6360,96,6480,120C6600,144,6720,240,6840,264C6960,288,7080,240,7200,240C7320,240,7440,288,7560,264C7680,240,7800,144,7920,136C8040,128,8160,208,8280,256C8400,304,8520,320,8580,328L8640,336L8640,480L8580,480C8520,480,8400,480,8280,480C8160,480,8040,480,7920,480C7800,480,7680,480,7560,480C7440,480,7320,480,7200,480C7080,480,6960,480,6840,480C6720,480,6600,480,6480,480C6360,480,6240,480,6120,480C6000,480,5880,480,5760,480C5640,480,5520,480,5400,480C5280,480,5160,480,5040,480C4920,480,4800,480,4680,480C4560,480,4440,480,4320,480C4200,480,4080,480,3960,480C3840,480,3720,480,3600,480C3480,480,3360,480,3240,480C3120,480,3000,480,2880,480C2760,480,2640,480,2520,480C2400,480,2280,480,2160,480C2040,480,1920,480,1800,480C1680,480,1560,480,1440,480C1320,480,1200,480,1080,480C960,480,840,480,720,480C600,480,480,480,360,480C240,480,120,480,60,480L0,480Z"/></svg>